HIERARCHY
ROOT Hips
{
	OFFSET 0.00000 0.00000 0.00000
	CHANNELS 6 Xposition Yposition Zposition Zrotation Yrotation Xrotation 
	JOINT LHipJoint
	{
		OFFSET 0 0 0
		CHANNELS 3 Zrotation Yrotation Xrotation
		JOINT LeftUpLeg
		{
			OFFSET 1.57358 -1.76629 0.73362
			CHANNELS 3 Zrotation Yrotation Xrotation
			JOINT LeftLeg
			{
				OFFSET 2.40600 -6.61045 0.00000
				CHANNELS 3 Zrotation Yrotation Xrotation
				JOINT LeftFoot
				{
					OFFSET 2.66168 -7.31291 0.00000
					CHANNELS 3 Zrotation Yrotation Xrotation
					JOINT LeftToeBase
					{
						OFFSET 0.20870 -0.57341 2.12506
						CHANNELS 3 Zrotation Yrotation Xrotation
						End Site
						{
							OFFSET 0.00000 -0.00000 1.10557
						}
					}
				}
			}
		}
	}
	JOINT RHipJoint
	{
		OFFSET 0 0 0
		CHANNELS 3 Zrotation Yrotation Xrotation
		JOINT RightUpLeg
		{
			OFFSET -1.49299 -1.76629 0.73362
			CHANNELS 3 Zrotation Yrotation Xrotation
			JOINT RightLeg
			{
				OFFSET -2.43663 -6.69460 0.00000
				CHANNELS 3 Zrotation Yrotation Xrotation
				JOINT RightFoot
				{
					OFFSET -2.62959 -7.22474 0.00000
					CHANNELS 3 Zrotation Yrotation Xrotation
					JOINT RightToeBase
					{
						OFFSET -0.25784 -0.70841 2.21862
						CHANNELS 3 Zrotation Yrotation Xrotation
						End Site
						{
							OFFSET -0.00000 -0.00000 1.16452
						}
					}
				}
			}
		}
	}
	JOINT LowerBack
	{
		OFFSET 0 0 0
		CHANNELS 3 Zrotation Yrotation Xrotation
		JOINT Spine
		{
			OFFSET -0.00034 2.12399 -0.25450
			CHANNELS 3 Zrotation Yrotation Xrotation
			JOINT Spine1
			{
				OFFSET 0.05594 2.14379 -0.03318
				CHANNELS 3 Zrotation Yrotation Xrotation
				JOINT Neck
				{
					OFFSET 0 0 0
					CHANNELS 3 Zrotation Yrotation Xrotation
					JOINT Neck1
					{
						OFFSET -0.09835 1.62725 0.24211
						CHANNELS 3 Zrotation Yrotation Xrotation
						JOINT Head
						{
							OFFSET 0.10849 1.66041 -0.22648
							CHANNELS 3 Zrotation Yrotation Xrotation
							End Site
							{
								OFFSET 0.04385 1.68267 -0.10541
							}
						}
					}
				}
				JOINT LeftShoulder
				{
					OFFSET 0 0 0
					CHANNELS 3 Zrotation Yrotation Xrotation
					JOINT LeftArm
					{
						OFFSET 3.29108 0.79398 -0.68179
						CHANNELS 3 Zrotation Yrotation Xrotation
						JOINT LeftForeArm
						{
							OFFSET 5.15310 -0.00000 -0.00000
							CHANNELS 3 Zrotation Yrotation Xrotation
							JOINT LeftHand
							{
								OFFSET 3.75138 -0.00000 -0.00000
								CHANNELS 3 Zrotation Yrotation Xrotation
								JOINT LeftFingerBase
								{
									OFFSET 0 0 0
									CHANNELS 3 Zrotation Yrotation Xrotation
									JOINT LeftHandIndex1
									{
										OFFSET 0.52917 -0.00000 0.00000
										CHANNELS 3 Zrotation Yrotation Xrotation
										End Site
										{
											OFFSET 0.42663 -0.00000 0.00000
										}
									}
								}
								JOINT LThumb
								{
									OFFSET 0 0 0
									CHANNELS 3 Zrotation Yrotation Xrotation
									End Site
									{
										OFFSET 0.43315 -0.00000 0.43315
									}
								}
							}
						}
					}
				}
				JOINT RightShoulder
				{
					OFFSET 0 0 0
					CHANNELS 3 Zrotation Yrotation Xrotation
					JOINT RightArm
					{
						OFFSET -3.07414 1.06285 -0.44338
						CHANNELS 3 Zrotation Yrotation Xrotation
						JOINT RightForeArm
						{
							OFFSET -5.29613 -0.00000 0.00000
							CHANNELS 3 Zrotation Yrotation Xrotation
							JOINT RightHand
							{
								OFFSET -3.76144 -0.00000 -0.00000
								CHANNELS 3 Zrotation Yrotation Xrotation
								JOINT RightFingerBase
								{
									OFFSET 0 0 0
									CHANNELS 3 Zrotation Yrotation Xrotation
									JOINT RightHandIndex1
									{
										OFFSET -0.74732 -0.00000 0.00000
										CHANNELS 3 Zrotation Yrotation Xrotation
										End Site
										{
											OFFSET -0.60251 -0.00000 0.00000
										}
									}
								}
								JOINT RThumb
								{
									OFFSET 0 0 0
									CHANNELS 3 Zrotation Yrotation Xrotation
									End Site
									{
										OFFSET -0.61171 -0.00000 0.61171
									}
								}
							}
						}
					}
				}
			}
		}
	}
}
MOTION
Frames: 14
Frame Time: .0083333
0.3444 16.5708 -33.4149 0 0 0 0 0 0 -21 0 0 0 0 0 0 0 0 0 0 0 0 0 0 21 0 0 0 0 0 0 0 0 0 0 0 0 0 0 0 0 0 0 0 0 0 0 -16 0 0 21 0 0 11 0 0 0 -8 0 0 0 0 0 0 0 0 0 0 0 0 0 0 0 0 0 0 0 0 8 0 0 0 0 0 0 0 0 0 0 0 0 0 0 0 0 0
0.3444 16.5708 -33.4149 -4.8404 -2.8988 18.9730 0.0000 0.0000 0.0000 -3.7154 -8.4029 -56.7108 17.8720 19.8911 83.7674 0.1835 -7.8083 -8.7639 0.4621 -4.3603 -12.0925 0.0000 0.0000 0.0000 28.6890 1.0497 3.1584 -0.7672 -5.5931 15.6082 -0.9525 -2.1103 -19.3117 -1.3086 7.2464 -20.4475 -0.5374 -0.7289 10.7627 5.8141 -0.6953 0.2418 6.5801 -0.2487 -5.7217 -14.4193 -0.9497 -8.9685 6.8088 -0.0596 7.9039 4.4350 -0.1117 3.8336 -0.0000 0.0000 0.0000 -96.5487 22.1996 18.5090 56.1395 -55.1902 -31.1495 -0.0000 0.0000 -1.9379 20.1509 25.7209 9.0486 -7.1250 0.0000 -0.0000 -10.6114 56.8275 -3.0999 -0.0000 0.0000 0.0000 80.8616 -1.7068 49.8356 -73.5209 58.9486 -45.7791 0.0000 -0.0000 -8.8115 -16.0046 17.2883 -4.8722 7.1250 -0.0000 -0.0000 7.8693 -12.1654 6.0934
0.3400 16.5564 -33.2469 -5.1303 -3.7649 19.5135 0.0000 0.0000 0.0000 -3.4361 -7.6710 -58.0164 17.6267 19.8644 83.0458 0.1793 -8.8862 -9.1597 0.4710 -4.4015 -12.2091 0.0000 0.0000 0.0000 28.5960 1.7572 3.6883 -0.7447 -5.5124 15.3761 -0.9141 -1.8098 -18.8006 -1.4711 7.6646 -21.6999 -0.0784 -0.0498 10.4097 5.2246 0.2154 0.3843 5.5248 0.1740 -5.4719 -13.8614 -1.4194 -9.4102 7.2388 -0.7351 7.6108 4.4407 -0.3917 3.8871 0.0000 0.0000 0.0000 -95.0336 23.2172 20.0166 58.9458 -56.0224 -33.4654 -0.0000 0.0000 -2.4652 20.3808 24.4954 8.7569 -7.1250 0.0000 -0.0000 -9.8015 55.6336 -2.5757 0.0000 0.0000 0.0000 81.9966 -1.2659 49.0767 -76.2060 59.2687 -48.0834 0.0000 -0.0000 -8.6936 -15.9420 17.4201 -4.8878 7.1250 -0.0000 -0.0000 7.9145 -12.0374 6.1503
0.3471 16.5384 -33.0712 -5.3038 -4.2006 19.8251 0.0000 0.0000 0.0000 -3.2092 -7.4752 -58.9148 17.2831 19.8221 82.0336 0.1965 -9.4288 -9.6461 0.5605 -4.7953 -13.3258 0.0000 0.0000 0.0000 28.4829 1.9712 4.4928 -0.6787 -5.2678 14.6740 -0.8234 -1.6066 -17.7947 -1.5124 7.7664 -22.0069 -0.3393 0.1421 10.5696 5.3530 0.4601 0.1973 5.7833 0.3114 -5.7875 -13.9384 -1.2395 -9.1301 7.1432 -0.5072 7.2620 4.4320 -0.2821 3.7105 0.0000 0.0000 0.0000 -95.4803 24.8078 19.9534 61.7643 -56.7620 -35.8129 -0.0000 0.0000 -2.8919 20.4044 23.0697 8.2931 -7.1250 0.0000 -0.0000 -9.1791 54.1842 -2.0853 0.0000 0.0000 0.0000 81.6012 -1.5748 49.6718 -79.3987 59.5710 -50.8322 0.0000 -0.0000 -8.8193 -16.0600 17.2927 -4.8910 7.1250 -0.0000 -0.0000 7.8329 -12.1552 6.0663
0.3625 16.5343 -32.8830 -5.1805 -4.3350 19.9089 0.0000 0.0000 0.0000 -3.2983 -7.8096 -59.3438 16.8547 19.7611 80.7684 0.2263 -9.7138 -10.1727 0.5693 -4.8324 -13.4311 0.0000 0.0000 0.0000 28.1091 1.7513 5.2646 -0.6187 -5.0338 14.0050 -0.7448 -1.2571 -16.8049 -1.6228 8.0318 -22.8106 2.3009 2.1890 10.2959 2.9053 3.2486 2.2294 1.2986 1.5910 -3.4861 -10.4329 -4.3015 -16.3711 7.6096 -4.4341 8.2310 3.6751 -1.9606 5.5471 0.0000 -0.0000 0.0000 -88.0521 20.8400 27.7665 63.0213 -57.0627 -36.8661 -0.0000 0.0000 -3.7378 20.3499 22.2381 7.9904 -7.1250 0.0000 -0.0000 -8.9131 53.3222 -1.8359 0.0000 -0.0000 0.0000 86.0472 2.0755 42.9640 -81.6645 59.7358 -52.7877 0.0000 -0.0000 -8.5929 -16.3276 17.9821 -5.1676 7.1250 -0.0000 -0.0000 7.6782 -11.4220 6.0617
0.3798 16.5365 -32.6820 -5.0432 -4.7134 20.1088 0.0000 0.0000 0.0000 -3.5367 -7.9387 -59.7416 16.3484 19.6773 79.2680 0.2590 -9.9308 -10.6849 0.6074 -4.9883 -13.8752 0.0000 0.0000 0.0000 27.5704 1.6291 6.1273 -0.5529 -4.7632 13.2342 -0.6860 -0.4542 -15.8213 -1.5472 7.8513 -22.2633 1.7250 2.3125 11.7555 2.9706 3.4572 1.0301 1.5781 1.6864 -5.5937 -10.7634 -4.5299 -15.1212 7.7744 -4.8234 8.2451 3.7543 -2.1749 5.3971 0.0000 0.0000 0.0000 -88.3680 24.1547 27.7363 66.2321 -57.7540 -39.5716 -0.0000 0.0000 -4.2403 19.7057 20.1219 7.0243 -7.1250 0.0000 -0.0000 -8.8102 51.0359 -1.3188 0.0000 0.0000 0.0000 85.6815 0.0045 43.6204 -84.3381 59.8785 -55.0986 0.0000 -0.0000 -8.9473 -16.4130 19.0986 -5.5051 7.1250 -0.0000 -0.0000 7.6645 -10.2715 6.2325
0.3989 16.5406 -32.4765 -5.0020 -5.1837 20.4126 0.0000 0.0000 0.0000 -3.6748 -8.0194 -60.1471 15.8146 19.5747 77.6789 0.2932 -10.1517 -11.1988 0.5782 -4.8691 -13.5357 0.0000 0.0000 0.0000 27.0447 1.5217 6.9749 -0.4876 -4.4773 12.4234 -0.6011 0.3035 -14.5484 -1.4707 7.6635 -21.6967 1.2055 2.1913 11.9211 3.1968 3.2756 0.4169 2.1231 1.6129 -6.3754 -11.3612 -3.5853 -13.2012 7.7283 -3.6199 7.7968 3.9669 -1.6433 4.8395 -0.0000 0.0000 0.0000 -89.5246 26.7575 26.6217 69.3967 -58.3337 -42.2568 -0.0000 0.0000 -5.5237 20.5590 22.6205 8.2087 -7.1250 0.0000 -0.0000 -8.8458 53.7536 -1.9154 -0.0000 0.0000 0.0000 84.8617 -1.0260 45.2119 -85.9088 59.9367 -56.4577 0.0000 -0.0000 -8.9783 -16.8699 19.5761 -5.8017 7.1250 -0.0000 -0.0000 7.3895 -9.7290 6.0867
0.4210 16.5347 -32.2761 -4.9402 -5.2131 20.6577 0.0000 0.0000 0.0000 -3.6837 -8.5245 -60.4144 15.3001 19.4619 76.1389 0.3289 -10.3462 -11.6998 0.4611 -4.3557 -12.0796 0.0000 0.0000 0.0000 26.6940 1.3036 7.7459 -0.4299 -4.2078 11.6619 -0.4933 0.3991 -13.1369 -1.5104 7.7617 -21.9925 1.0505 1.7674 10.9946 3.4369 2.6739 0.5552 2.5925 1.3287 -5.7082 -12.3295 -3.1622 -11.5263 8.2791 -3.0834 6.3016 4.3493 -1.3914 4.0787 -0.0000 -0.0000 0.0000 -90.9896 28.0776 24.9057 72.2808 -58.7798 -44.7176 -0.0000 0.0000 -7.5050 20.2494 23.4237 8.3430 -7.1250 0.0000 -0.0000 -9.4810 54.5159 -2.2318 -0.0000 -0.0000 0.0000 83.9965 -0.8885 47.1821 -86.1824 59.9449 -56.6945 0.0000 -0.0000 -8.0455 -18.4179 20.0295 -6.5067 7.1250 -0.0000 -0.0000 6.4152 -9.0674 5.3586
0.4414 16.5218 -32.0711 -4.9983 -5.3267 20.7959 0.0000 0.0000 0.0000 -3.5769 -8.9282 -60.4404 14.8231 19.3449 74.7033 0.3616 -10.5987 -12.1722 0.4461 -4.2853 -11.8807 0.0000 0.0000 0.0000 26.4699 1.2851 8.7018 -0.3686 -3.9000 10.7955 -0.3803 0.2600 -11.5613 -1.5941 7.9639 -22.6044 -0.5384 1.2410 12.1041 4.6770 1.9228 -0.5326 4.9383 1.0600 -7.5660 -13.7326 -2.1539 -9.6860 7.8391 -1.7174 6.1173 4.5380 -0.8058 3.5871 -0.0000 -0.0000 0.0000 -94.8139 31.2132 21.6113 74.9215 -59.1232 -46.9800 -0.0000 0.0000 -9.2634 19.3249 22.6622 7.6950 -7.1250 0.0000 -0.0000 -10.1141 53.5645 -2.1472 -0.0000 -0.0000 0.0000 81.4430 -2.7786 49.7588 -89.7160 59.9997 -59.7540 0.0000 -0.0000 -11.5289 -15.9363 20.5930 -5.7352 7.1250 -0.0000 -0.0000 8.0367 -8.8057 6.7806
0.4619 16.5185 -31.8465 -5.0892 -5.8124 20.9921 0.0000 0.0000 0.0000 -3.6046 -9.0590 -60.2651 14.3417 19.2144 73.2455 0.3875 -10.9287 -12.5854 0.6134 -5.0126 -13.9446 0.0000 0.0000 0.0000 26.1187 1.5669 9.6388 -0.3174 -3.6214 10.0140 -0.2814 0.1408 -9.9705 -1.6377 8.0667 -22.9170 -0.9314 1.2720 11.9969 4.8323 1.9279 -0.7655 5.3352 1.0896 -7.7769 -13.9373 -1.7177 -8.5671 7.7883 -1.2440 5.5842 4.5806 -0.5874 3.1922 -0.0000 0.0000 0.0000 -95.7481 32.5303 20.6043 76.6554 -59.3163 -48.4698 -0.0000 0.0000 -10.6812 17.9668 21.7917 6.8644 -7.1250 0.0000 -0.0000 -11.1287 52.4371 -2.0578 -0.0000 0.0000 0.0000 80.7939 -3.5832 50.7339 -91.0411 59.9959 -60.9016 0.0000 -0.0000 -11.7246 -16.7371 21.2047 -6.2077 7.1250 -0.0000 -0.0000 7.5571 -8.0820 6.4777
0.4885 16.5215 -31.5921 -5.0354 -6.3482 20.9746 0.0000 0.0000 0.0000 -3.9013 -9.3188 -59.5714 13.8521 19.0686 71.7524 0.3995 -11.2168 -12.8264 0.8123 -5.7513 -16.0645 0.0000 0.0000 0.0000 25.5769 1.7315 10.5027 -0.3046 -3.5482 9.8089 -0.2113 0.1579 -8.6278 -1.8934 8.6404 -24.6768 2.7316 3.2529 10.9003 1.5463 4.6926 1.5248 -0.5966 2.2750 -4.4157 -9.9432 -4.5720 -15.1935 8.7518 -5.0643 6.3155 3.9090 -2.1970 4.8400 0.0000 0.0000 0.0000 -86.0523 27.6285 28.7655 76.5263 -59.3028 -48.3587 -0.0000 0.0000 -12.9957 17.5146 21.5564 6.6139 -7.1250 0.0000 -0.0000 -11.4837 52.1210 -2.0353 0.0000 0.0000 0.0000 86.5176 0.1303 43.6567 -91.3976 59.9926 -61.2103 0.0000 -0.0000 -11.8753 -16.6181 22.4175 -6.4933 7.1250 -0.0000 -0.0000 7.7021 -6.8621 6.7899
0.5141 16.5103 -31.3493 -5.0820 -6.4716 21.0851 0.0000 0.0000 0.0000 -3.8839 -9.8926 -59.1310 13.3983 18.9213 70.3582 0.3725 -11.6048 -12.6942 0.9788 -6.2979 -17.6514 0.0000 0.0000 0.0000 25.3729 1.9363 11.1531 -0.3059 -3.5557 9.8298 -0.1471 -0.1332 -7.2933 -2.3901 9.6352 -27.8033 2.9639 3.4151 10.6736 1.3958 4.9096 1.7224 -0.8875 2.3856 -4.0447 -9.8585 -4.7953 -15.8237 8.9182 -5.3414 6.2977 3.9140 -2.3050 4.9654 0.0000 0.0000 0.0000 -85.8562 27.7130 28.7603 77.9583 -59.4449 -49.5910 -0.0000 0.0000 -13.7969 16.6259 22.1687 6.4286 -7.1250 0.0000 -0.0000 -12.6088 52.5787 -2.3824 0.0000 0.0000 0.0000 86.4409 0.0716 43.5284 -91.5581 59.9908 -61.3493 0.0000 -0.0000 -11.4151 -16.9348 22.4385 -6.6292 7.1250 -0.0000 -0.0000 7.5046 -6.7975 6.6221
0.5197 16.4954 -31.1522 -4.7954 -5.7718 21.4952 0.0000 0.0000 0.0000 -3.8498 -11.0301 -59.3377 12.9736 18.7726 69.0435 0.2715 -12.1421 -11.8411 1.1267 -6.7420 -18.9533 0.0000 0.0000 0.0000 25.3443 1.9401 10.9780 -0.3410 -3.7526 10.3818 -0.0884 -0.9359 -6.0398 -2.7557 10.2886 -29.9166 2.8199 3.2311 11.2896 1.3165 4.6956 1.0553 -0.9271 2.2573 -5.0976 -9.7029 -4.7613 -15.6375 8.9745 -5.3593 6.4453 3.9073 -2.3101 4.9811 -0.0000 -0.0000 0.0000 -85.6963 28.8266 28.6603 78.8212 -59.5225 -50.3344 -0.0000 0.0000 -14.1224 16.2916 18.7675 5.3717 -7.1250 0.0000 -0.0000 -11.6536 49.1181 -1.1983 -0.0000 -0.0000 0.0000 86.3467 -1.1527 43.6374 -91.7528 59.9884 -61.5179 0.0000 -0.0000 -11.1720 -17.5522 22.6471 -6.9440 7.1250 -0.0000 -0.0000 7.1312 -6.4985 6.3287
0.5390 16.4785 -30.8993 -4.7066 -6.0084 21.4848 0.0000 0.0000 0.0000 -4.2194 -11.2482 -58.6151 12.6429 18.6494 68.0127 0.2005 -12.6836 -11.3283 0.6979 -5.3402 -14.8814 0.0000 0.0000 0.0000 25.0070 2.2074 11.0662 -0.4259 -4.1884 11.6073 -0.0520 -1.1253 -4.8770 -2.3827 9.6215 -27.7596 2.9235 3.2292 11.7509 0.9770 4.7201 0.6222 -1.3887 2.2456 -5.7730 -9.5204 -4.6809 -15.2386 9.2964 -5.3689 6.6005 3.9846 -2.2984 4.9723 -0.0000 -0.0000 0.0000 -85.3659 29.8199 28.4533 79.1464 -59.5502 -50.6147 -0.0000 0.0000 -14.1377 16.1873 20.5718 5.8241 -7.1250 0.0000 -0.0000 -12.4006 50.9104 -1.8299 -0.0000 -0.0000 0.0000 86.5354 -2.4364 43.9143 -92.0681 59.9838 -61.7910 0.0000 -0.0000 -11.4670 -17.6656 22.6580 -6.9945 7.1250 -0.0000 -0.0000 7.0609 -6.4713 6.2691
